<svg width="24" height="24" viewBox="0 0 24 24" fill="none" xmlns="http://www.w3.org/2000/svg">
<path fill-rule="evenodd" clip-rule="evenodd" d="M14.5513 12.4323C16.8921 11.4612 18.5384 9.15361 18.5384 6.46154C18.5384 2.89293 15.6455 0 12.0769 0C8.50826 0 5.61533 2.89293 5.61533 6.46154C5.61533 9.15363 7.26167 11.4612 9.60245 12.4323C4.25852 13.5699 0.25 18.3168 0.25 24L1.75 24C1.75 18.2966 6.37352 13.6731 12.0769 13.6731C17.7803 13.6731 22.4038 18.2966 22.4038 24H23.9038C23.9038 18.3168 19.8953 13.5699 14.5513 12.4323ZM17.0384 6.46154C17.0384 9.20172 14.8171 11.4231 12.0769 11.4231C9.33669 11.4231 7.11533 9.20172 7.11533 6.46154C7.11533 3.72136 9.33669 1.5 12.0769 1.5C14.8171 1.5 17.0384 3.72136 17.0384 6.46154Z" fill="white"/>
</svg>
