<svg width="123" height="19" viewBox="0 0 123 19" fill="none" xmlns="http://www.w3.org/2000/svg">
<path d="M2.94141 13.3477C3.04297 14.2617 3.49219 14.9961 4.28906 15.5508C5.07812 16.1055 6.07812 16.3828 7.28906 16.3828C8.42969 16.3828 9.375 16.1133 10.125 15.5742C10.8672 15.0273 11.2383 14.3398 11.2383 13.5117C11.2383 12.8008 10.9766 12.2109 10.4531 11.7422C9.9375 11.2891 9.10938 10.9141 7.96875 10.6172L5.80078 10.0547C4.23828 9.65625 3.09766 9.09766 2.37891 8.37891C1.66016 7.66797 1.30078 6.73828 1.30078 5.58984C1.30078 4.18359 1.85938 3.03516 2.97656 2.14453C4.08594 1.25391 5.51953 0.808594 7.27734 0.808594C8.95703 0.808594 10.3477 1.25781 11.4492 2.15625C12.5508 3.0625 13.125 4.22266 13.1719 5.63672H11.0625C10.9688 4.73047 10.5781 4.01562 9.89062 3.49219C9.20312 2.96875 8.30859 2.70703 7.20703 2.70703C6.11328 2.70703 5.21875 2.96484 4.52344 3.48047C3.83594 3.99609 3.49219 4.66797 3.49219 5.49609C3.49219 6.13672 3.74609 6.66016 4.25391 7.06641C4.75391 7.48047 5.57812 7.83594 6.72656 8.13281L8.49609 8.60156C10.2461 9.03906 11.5039 9.62109 12.2695 10.3477C13.0352 11.0742 13.418 12.043 13.418 13.2539C13.418 14.8008 12.8516 16.0234 11.7188 16.9219C10.5781 17.8281 9.03516 18.2812 7.08984 18.2812C5.29297 18.2812 3.82422 17.832 2.68359 16.9336C1.54297 16.0352 0.921875 14.8398 0.820312 13.3477H2.94141ZM15.6211 5.36719H17.543V7.41797H17.5898C17.8867 6.74609 18.3555 6.21484 18.9961 5.82422C19.6289 5.44141 20.3555 5.25 21.1758 5.25C22.957 5.25 24.1367 6.04688 24.7148 7.64062H24.7617C25.1211 6.89062 25.6523 6.30469 26.3555 5.88281C27.0586 5.46094 27.8516 5.25 28.7344 5.25C29.9844 5.25 30.9805 5.625 31.7227 6.375C32.4727 7.125 32.8477 8.125 32.8477 9.375V18H30.8086V9.84375C30.8086 8.96875 30.5781 8.28906 30.1172 7.80469C29.6484 7.3125 28.9922 7.06641 28.1484 7.06641C27.3047 7.06641 26.6133 7.34766 26.0742 7.91016C25.5273 8.47266 25.2539 9.1875 25.2539 10.0547V18H23.2148V9.59766C23.2148 8.83203 22.9766 8.21875 22.5 7.75781C22.0156 7.29688 21.3789 7.06641 20.5898 7.06641C19.7461 7.06641 19.0469 7.35938 18.4922 7.94531C17.9375 8.53906 17.6602 9.27734 17.6602 10.1602V18H15.6211V5.36719ZM39.6914 16.3477C40.7227 16.3477 41.5781 16.0508 42.2578 15.457C42.9297 14.8555 43.2656 14.1016 43.2656 13.1953V12.1758L39.9609 12.3867C38.0391 12.5039 37.0781 13.1797 37.0781 14.4141C37.0781 15 37.3164 15.4688 37.793 15.8203C38.2617 16.1719 38.8945 16.3477 39.6914 16.3477ZM39.2578 18.1172C37.9766 18.1172 36.9453 17.7773 36.1641 17.0977C35.3828 16.418 34.9922 15.5195 34.9922 14.4023C34.9922 13.3164 35.3984 12.4648 36.2109 11.8477C37.0234 11.2227 38.1953 10.8633 39.7266 10.7695L43.2656 10.5586V9.50391C43.2656 8.72266 43.0156 8.12109 42.5156 7.69922C42.0156 7.27734 41.3008 7.06641 40.3711 7.06641C39.6367 7.06641 39.0195 7.24219 38.5195 7.59375C38.0117 7.94531 37.6953 8.41797 37.5703 9.01172H35.6133C35.6445 7.94922 36.1172 7.05469 37.0312 6.32812C37.9453 5.60938 39.0664 5.25 40.3945 5.25C41.8867 5.25 43.0781 5.61719 43.9688 6.35156C44.8594 7.09375 45.3047 8.08594 45.3047 9.32812V18H43.3711V15.8086H43.3242C42.9648 16.5117 42.418 17.0703 41.6836 17.4844C40.9492 17.9062 40.1406 18.1172 39.2578 18.1172ZM48.0117 5.36719H49.9336V7.41797H49.9805C50.168 6.75391 50.5391 6.22656 51.0938 5.83594C51.6484 5.44531 52.2969 5.25 53.0391 5.25C53.3594 5.25 53.6211 5.27734 53.8242 5.33203V7.34766C53.6055 7.25391 53.2539 7.20703 52.7695 7.20703C51.9492 7.20703 51.293 7.48047 50.8008 8.02734C50.3008 8.57422 50.0508 9.29297 50.0508 10.1836V18H48.0117V5.36719ZM58.3359 2.51953V5.36719H60.7969V7.05469H58.3359V14.6367C58.3359 15.7617 58.8594 16.3242 59.9062 16.3242C60.2578 16.3242 60.5508 16.3047 60.7852 16.2656V17.9883C60.4883 18.0586 60.0508 18.0938 59.4727 18.0938C58.332 18.0938 57.5156 17.8359 57.0234 17.3203C56.5391 16.7969 56.2969 15.9297 56.2969 14.7188V7.05469H54.5391V5.36719H56.2969V2.51953H58.3359Z" fill="white"/>
<path d="M70.2773 18.2812C67.9414 18.2812 66.0898 17.4922 64.7227 15.9141C63.3477 14.3438 62.6602 12.2188 62.6602 9.53906C62.6602 6.88281 63.3516 4.76562 64.7344 3.1875C66.1172 1.60156 67.9648 0.808594 70.2773 0.808594C72.1211 0.808594 73.6836 1.32031 74.9648 2.34375C76.2539 3.375 77.0312 4.73438 77.2969 6.42188H75.1641C74.8906 5.3125 74.3125 4.42578 73.4297 3.76172C72.5312 3.08984 71.4805 2.75391 70.2773 2.75391C68.6289 2.75391 67.3086 3.37109 66.3164 4.60547C65.3242 5.83984 64.8281 7.48438 64.8281 9.53906C64.8281 11.6172 65.3203 13.2695 66.3047 14.4961C67.2891 15.7227 68.6172 16.3359 70.2891 16.3359C71.5312 16.3359 72.5781 16.0508 73.4297 15.4805C74.2812 14.9102 74.8594 14.1094 75.1641 13.0781H77.2969C76.9062 14.75 76.1055 16.0352 74.8945 16.9336C73.6836 17.832 72.1445 18.2812 70.2773 18.2812ZM89.0859 13.1602H82.3594L80.6602 18H78.4453L84.6797 1.08984H86.7656L93 18H90.7852L89.0859 13.1602ZM82.9805 11.3672H88.4648L85.7578 3.65625H85.6875L82.9805 11.3672ZM96.2461 13.3477C96.3477 14.2617 96.7969 14.9961 97.5938 15.5508C98.3828 16.1055 99.3828 16.3828 100.594 16.3828C101.734 16.3828 102.68 16.1133 103.43 15.5742C104.172 15.0273 104.543 14.3398 104.543 13.5117C104.543 12.8008 104.281 12.2109 103.758 11.7422C103.242 11.2891 102.414 10.9141 101.273 10.6172L99.1055 10.0547C97.543 9.65625 96.4023 9.09766 95.6836 8.37891C94.9648 7.66797 94.6055 6.73828 94.6055 5.58984C94.6055 4.18359 95.1641 3.03516 96.2812 2.14453C97.3906 1.25391 98.8242 0.808594 100.582 0.808594C102.262 0.808594 103.652 1.25781 104.754 2.15625C105.855 3.0625 106.43 4.22266 106.477 5.63672H104.367C104.273 4.73047 103.883 4.01562 103.195 3.49219C102.508 2.96875 101.613 2.70703 100.512 2.70703C99.418 2.70703 98.5234 2.96484 97.8281 3.48047C97.1406 3.99609 96.7969 4.66797 96.7969 5.49609C96.7969 6.13672 97.0508 6.66016 97.5586 7.06641C98.0586 7.48047 98.8828 7.83594 100.031 8.13281L101.801 8.60156C103.551 9.03906 104.809 9.62109 105.574 10.3477C106.34 11.0742 106.723 12.043 106.723 13.2539C106.723 14.8008 106.156 16.0234 105.023 16.9219C103.883 17.8281 102.34 18.2812 100.395 18.2812C98.5977 18.2812 97.1289 17.832 95.9883 16.9336C94.8477 16.0352 94.2266 14.8398 94.125 13.3477H96.2461ZM120.574 18V10.3008H111.293V18H109.184V1.08984H111.293V8.40234H120.574V1.08984H122.684V18H120.574Z" fill="#58AE6B"/>
</svg>
