<svg xmlns="http://www.w3.org/2000/svg">
<symbol id="arrow-right" viewBox="0 0 11 18">
<path fill-rule="evenodd" clip-rule="evenodd" d="M7.9394 9.00006L0.469727 1.53039L1.53039 0.469727L10.0607 9.00006L1.53039 17.5304L0.469727 16.4697L7.9394 9.00006Z"/>
</symbol>

<symbol id="arrow-left" viewBox="0 0 8 16">
<path fill-rule="evenodd" clip-rule="evenodd" d="M2.59088 9.00006L10.0605 1.53039L8.99989 0.469727L0.469557 9.00006L8.99989 17.5304L10.0605 16.4697L2.59088 9.00006Z"/>
</symbol>

<symbol id="arrow-down" viewBox="0 0 18 11">
<path fill-rule="evenodd" clip-rule="evenodd" d="M0.469727 1.53039L1.53039 0.469727L9.00006 7.9394L16.4697 0.469727L17.5304 1.53039L9.00006 10.0607L0.469727 1.53039Z" fill="black"/>
</symbol>

<symbol id="user-icon" viewBox="0 0 24 24">
<path fill-rule="evenodd" clip-rule="evenodd" d="M14.5513 12.4323C16.8921 11.4612 18.5384 9.15361 18.5384 6.46154C18.5384 2.89293 15.6455 0 12.0769 0C8.50826 0 5.61533 2.89293 5.61533 6.46154C5.61533 9.15363 7.26167 11.4612 9.60245 12.4323C4.25852 13.5699 0.25 18.3168 0.25 24L1.75 24C1.75 18.2966 6.37352 13.6731 12.0769 13.6731C17.7803 13.6731 22.4038 18.2966 22.4038 24H23.9038C23.9038 18.3168 19.8953 13.5699 14.5513 12.4323ZM17.0384 6.46154C17.0384 9.20172 14.8171 11.4231 12.0769 11.4231C9.33669 11.4231 7.11533 9.20172 7.11533 6.46154C7.11533 3.72136 9.33669 1.5 12.0769 1.5C14.8171 1.5 17.0384 3.72136 17.0384 6.46154Z" fill="white"/>
</symbol>

<symbol id="time" viewBox="0 0 20 20">
<path d="M0 3C0 1.34315 1.34315 0 3 0H17C18.6569 0 20 1.34315 20 3V17C20 18.6569 18.6569 20 17 20H3C1.34315 20 0 18.6569 0 17V3Z" fill="#BDBDBD"/>
<path d="M10 3C6.14014 3 3 6.14014 3 10C3 13.8599 6.14014 17 10 17C13.8599 17 17 13.8599 17 10C17 6.14014 13.8599 3 10 3ZM10 15.4699C6.98379 15.4699 4.53005 13.0162 4.53005 10C4.53005 6.98394 6.98379 4.53005 10 4.53005C13.0162 4.53005 15.4699 6.98394 15.4699 10C15.4699 13.0162 13.0162 15.4699 10 15.4699Z" fill="white"/>
<path d="M10.6059 10.0083V7.07449C10.6059 6.7469 10.3404 6.48145 10.013 6.48145C9.68541 6.48145 9.41992 6.7469 9.41992 7.07449V10.1978C9.41992 10.2071 9.42222 10.2159 9.42267 10.2252C9.41487 10.3865 9.47042 10.5502 9.59358 10.6734L11.8022 12.8818C12.0339 13.1135 12.4093 13.1135 12.6408 12.8818C12.8723 12.6502 12.8725 12.2747 12.6408 12.0432L10.6059 10.0083Z" fill="white"/>
</symbol>

<symbol id="global" viewBox="0 0 20 20">
<path d="M0 3C0 1.34315 1.34315 0 3 0H17C18.6569 0 20 1.34315 20 3V17C20 18.6569 18.6569 20 17 20H3C1.34315 20 0 18.6569 0 17V3Z" fill="#BDBDBD"/>
<path d="M12.945 6.86719C12.1467 7.03387 11.2915 7.13253 10.4102 7.156V9.59006H13.2951C13.2685 8.63134 13.1489 7.70961 12.945 6.86719Z" fill="white"/>
<path d="M5.88414 9.59009C5.91119 8.56682 6.03923 7.5793 6.25866 6.67289C5.54006 6.47118 4.88259 6.2104 4.31241 5.89697C3.53146 6.9746 3.07698 8.24662 3 9.59009H5.88414Z" fill="white"/>
<path d="M5.88414 10.4106H3C3.07698 11.7541 3.53146 13.0261 4.31238 14.1038C4.88256 13.7903 5.54006 13.5296 6.25866 13.3278C6.03923 12.4214 5.91116 11.4339 5.88414 10.4106Z" fill="white"/>
<path d="M11.1796 3.47434C10.9288 3.26216 10.6712 3.11922 10.4102 3.0459V6.33551C11.2157 6.31309 11.9949 6.22476 12.7214 6.07708C12.588 5.66962 12.4331 5.2869 12.2573 4.9353C11.9414 4.30364 11.5788 3.81208 11.1796 3.47434Z" fill="white"/>
<path d="M6.47895 14.1162C5.87844 14.2849 5.32658 14.4975 4.8418 14.7501C4.90688 14.8206 4.97317 14.8903 5.04143 14.9586C5.83003 15.7472 6.77339 16.3248 7.80303 16.6631C7.5146 16.3222 7.24786 15.9105 7.00868 15.4321C6.80629 15.0273 6.62927 14.5861 6.47895 14.1162Z" fill="white"/>
<path d="M7.7424 4.9353C7.56661 5.2869 7.41164 5.66962 7.27832 6.07708C8.00476 6.22476 8.78402 6.31309 9.58952 6.33551V3.0459C9.32844 3.11924 9.07091 3.26216 8.82009 3.47434C8.42082 3.81208 8.05825 4.30364 7.7424 4.9353Z" fill="white"/>
<path d="M14.1157 10.4106C14.0887 11.4339 13.9606 12.4214 13.7412 13.3278C14.4598 13.5296 15.1173 13.7903 15.6875 14.1038C16.4684 13.0261 16.9229 11.7541 16.9999 10.4106H14.1157Z" fill="white"/>
<path d="M13.5209 5.88425C14.1214 5.7156 14.6733 5.50295 15.158 5.25035C15.0929 5.17982 15.0267 5.11011 14.9584 5.04185C14.1698 4.25328 13.2264 3.67574 12.1968 3.3374C12.4852 3.67831 12.7519 4.09002 12.9911 4.56834C13.1935 4.97313 13.3706 5.4144 13.5209 5.88425Z" fill="white"/>
<path d="M12.2573 15.0653C12.4331 14.7137 12.588 14.3309 12.7214 13.9235C11.9949 13.7758 11.2157 13.6875 10.4102 13.665V16.9547C10.6712 16.8813 10.9288 16.7384 11.1796 16.5262C11.5789 16.1885 11.9414 15.697 12.2573 15.0653Z" fill="white"/>
<path d="M13.7412 6.67286C13.9606 7.57927 14.0887 8.5668 14.1157 9.59006H16.9999C16.9229 8.24659 16.4684 6.97458 15.6875 5.89697C15.1173 6.21037 14.4598 6.47115 13.7412 6.67286Z" fill="white"/>
<path d="M10.4102 10.4106V12.8447C11.2915 12.8682 12.1467 12.9668 12.945 13.1335C13.1489 12.2911 13.2685 11.3694 13.2951 10.4106H10.4102Z" fill="white"/>
<path d="M9.5895 9.59006V7.156C8.70819 7.13253 7.85297 7.03387 7.05466 6.86719C6.85079 7.70964 6.73117 8.63134 6.70459 9.59006H9.5895Z" fill="white"/>
<path d="M6.47895 5.88425C6.62925 5.41437 6.80629 4.97313 7.00868 4.56834C7.24786 4.09002 7.5146 3.67828 7.80303 3.3374C6.77342 3.67574 5.83003 4.25328 5.04143 5.04188C4.97317 5.11014 4.90688 5.17984 4.8418 5.25037C5.32658 5.50295 5.87844 5.7156 6.47895 5.88425Z" fill="white"/>
<path d="M13.5209 14.1162C13.3706 14.5861 13.1935 15.0273 12.9911 15.4321C12.7519 15.9104 12.4852 16.3222 12.1968 16.6631C13.2264 16.3248 14.1698 15.7472 14.9584 14.9586C15.0266 14.8904 15.0929 14.8207 15.158 14.7501C14.6732 14.4975 14.1214 14.2849 13.5209 14.1162Z" fill="white"/>
<path d="M9.5895 10.4106H6.70459C6.73117 11.3694 6.85079 12.2911 7.05466 13.1335C7.85294 12.9668 8.70819 12.8682 9.5895 12.8447V10.4106Z" fill="white"/>
<path d="M8.82009 16.5262C9.07091 16.7384 9.32847 16.8813 9.58952 16.9547V13.665C8.78402 13.6875 8.00476 13.7758 7.27832 13.9235C7.41164 14.3309 7.56658 14.7137 7.7424 15.0653C8.05825 15.6969 8.42082 16.1884 8.82009 16.5262Z" fill="white"/>
</symbol>

<symbol id="instagram" viewBox="0 0 20 20">
<path d="M0 3C0 1.34315 1.34315 0 3 0H17C18.6569 0 20 1.34315 20 3V17C20 18.6569 18.6569 20 17 20H3C1.34315 20 0 18.6569 0 17V3Z" fill="#BDBDBD"/>
<path d="M12.625 3H7.375C4.95913 3 3 4.95913 3 7.375V12.625C3 15.0409 4.95913 17 7.375 17H12.625C15.0409 17 17 15.0409 17 12.625V7.375C17 4.95913 15.0409 3 12.625 3ZM15.6875 12.625C15.6875 14.3138 14.3138 15.6875 12.625 15.6875H7.375C5.68625 15.6875 4.3125 14.3138 4.3125 12.625V7.375C4.3125 5.68625 5.68625 4.3125 7.375 4.3125H12.625C14.3138 4.3125 15.6875 5.68625 15.6875 7.375V12.625Z" fill="white"/>
<path d="M10 6.5C8.06712 6.5 6.5 8.06712 6.5 10C6.5 11.9329 8.06712 13.5 10 13.5C11.9329 13.5 13.5 11.9329 13.5 10C13.5 8.06712 11.9329 6.5 10 6.5ZM10 12.1875C8.79425 12.1875 7.8125 11.2057 7.8125 10C7.8125 8.79338 8.79425 7.8125 10 7.8125C11.2057 7.8125 12.1875 8.79338 12.1875 10C12.1875 11.2057 11.2057 12.1875 10 12.1875Z" fill="white"/>
<path d="M13.7623 6.70374C14.0198 6.70374 14.2286 6.49494 14.2286 6.23737C14.2286 5.9798 14.0198 5.771 13.7623 5.771C13.5047 5.771 13.2959 5.9798 13.2959 6.23737C13.2959 6.49494 13.5047 6.70374 13.7623 6.70374Z" fill="white"/>
</symbol>

<symbol id="facebook" viewBox="0 0 20 20">
<path d="M17.5 0H2.5C1.12125 0 0 1.12125 0 2.5V17.5C0 18.8787 1.12125 20 2.5 20H10V13.125H7.5V10H10V7.5C10 5.42875 11.6788 3.75 13.75 3.75H16.25V6.875H15C14.31 6.875 13.75 6.81 13.75 7.5V10H16.875L15.625 13.125H13.75V20H17.5C18.8787 20 20 18.8787 20 17.5V2.5C20 1.12125 18.8787 0 17.5 0Z" fill="#BDBDBD"/>
</symbol>

<symbol id="telegram" viewBox="0 0 20 20">
<path d="M0 3C0 1.34315 1.34315 0 3 0H17C18.6569 0 20 1.34315 20 3V17C20 18.6569 18.6569 20 17 20H3C1.34315 20 0 18.6569 0 17V3Z" fill="#BDBDBD"/>
<path d="M8.7087 11.5909L8.5102 14.3829C8.7942 14.3829 8.91721 14.2609 9.06471 14.1144L10.3962 12.8419L13.1553 14.8624C13.6613 15.1444 14.0178 14.9959 14.1543 14.3969L15.9654 5.91072L15.9659 5.91022C16.1264 5.16221 15.6954 4.8697 15.2024 5.0532L4.5571 9.1288C3.83058 9.41081 3.84159 9.81582 4.4336 9.99932L7.15516 10.8458L13.4768 6.89025C13.7743 6.69324 14.0448 6.80225 13.8223 6.99925L8.7087 11.5909Z" fill="white"/>
</symbol>

<symbol id="whatsapp" viewBox="0 0 20 20">
<path d="M0 3C0 1.34315 1.34315 0 3 0H17C18.6569 0 20 1.34315 20 3V17C20 18.6569 18.6569 20 17 20H3C1.34315 20 0 18.6569 0 17V3Z" fill="#BDBDBD"/>
<path fill-rule="evenodd" clip-rule="evenodd" d="M14.4652 5.78023C13.3136 4.63284 11.7822 4.00067 10.1506 4C6.78866 4 4.05251 6.72298 4.05116 10.0697C4.05071 11.1396 4.33154 12.184 4.86532 13.1045L4 16.25L7.23342 15.4059C8.12435 15.8895 9.12738 16.1444 10.1481 16.1447H10.1507C13.5123 16.1447 16.2487 13.4215 16.25 10.0746C16.2507 8.45259 15.6168 6.92754 14.4652 5.78023ZM10.1506 15.1196H10.1485C9.23887 15.1192 8.34673 14.8759 7.56826 14.4163L7.38322 14.3069L5.46446 14.8079L5.97661 12.9461L5.85603 12.7552C5.34854 11.9519 5.08056 11.0234 5.08101 10.0701C5.08206 7.28837 7.35632 5.02522 10.1526 5.02522C11.5067 5.02567 12.7796 5.55114 13.7368 6.50481C14.6939 7.45847 15.2207 8.72609 15.2202 10.0742C15.219 12.8562 12.9449 15.1196 10.1506 15.1196ZM12.9314 11.3409C12.779 11.2649 12.0297 10.8981 11.89 10.8474C11.7504 10.7968 11.6487 10.7716 11.5472 10.9234C11.4455 11.0752 11.1535 11.4168 11.0645 11.518C10.9756 11.6192 10.8868 11.632 10.7344 11.556C10.5819 11.4801 10.0909 11.3199 9.50873 10.8031C9.05571 10.401 8.74987 9.90428 8.66091 9.75251C8.57211 9.60058 8.66016 9.52641 8.72778 9.44297C8.89276 9.23907 9.05796 9.02531 9.10875 8.92415C9.15961 8.82291 9.13414 8.73431 9.09598 8.65842C9.05796 8.58253 8.75317 7.83598 8.62621 7.53219C8.5024 7.23656 8.37686 7.27649 8.28325 7.27185C8.19445 7.26744 8.0928 7.26654 7.99115 7.26654C7.88958 7.26654 7.72445 7.30445 7.58471 7.45638C7.44505 7.60823 7.05138 7.97512 7.05138 8.72168C7.05138 9.46824 7.59748 10.1895 7.67366 10.2907C7.74984 10.3919 8.74836 11.9239 10.2771 12.5808C10.6408 12.7372 10.9246 12.8305 11.146 12.9004C11.5111 13.0158 11.8432 12.9995 12.1059 12.9605C12.3987 12.9169 13.0075 12.5935 13.1346 12.2393C13.2616 11.885 13.2616 11.5813 13.2234 11.518C13.1854 11.4548 13.0837 11.4168 12.9314 11.3409Z" fill="white"/>
</symbol>

<symbol id="phone" viewBox="0 0 20 20">
<path d="M0 3C0 1.34315 1.34315 0 3 0H17C18.6569 0 20 1.34315 20 3V17C20 18.6569 18.6569 20 17 20H3C1.34315 20 0 18.6569 0 17V3Z" fill="#BDBDBD"/>
<path d="M15.6735 12.8068L13.9989 11.1322C13.4008 10.5341 12.384 10.7733 12.1448 11.5508C11.9654 12.0891 11.3673 12.3882 10.829 12.2685C9.63284 11.9695 8.01801 10.4145 7.71897 9.15848C7.53954 8.62018 7.89839 8.02209 8.43667 7.84269C9.21418 7.60346 9.45341 6.58671 8.85533 5.98863L7.18069 4.31399C6.70222 3.89534 5.98452 3.89534 5.56586 4.31399L4.4295 5.45035C3.29314 6.64652 4.54912 9.81637 7.36012 12.6274C10.1711 15.4384 13.341 16.7542 14.5371 15.558L15.6735 14.4216C16.0922 13.9431 16.0922 13.2254 15.6735 12.8068Z" fill="white"/>
</symbol>

<symbol id="geo" viewBox="0 0 20 20">
<path d="M0 3C0 1.34315 1.34315 0 3 0H17C18.6569 0 20 1.34315 20 3V17C20 18.6569 18.6569 20 17 20H3C1.34315 20 0 18.6569 0 17V3Z" fill="#BDBDBD"/>
<path d="M9.9997 4C7.56392 4 5.58203 5.98189 5.58203 8.41792C5.58203 9.05333 5.71209 9.66 5.96839 10.2212C7.07293 12.6382 9.19064 15.1901 9.81353 15.9145C9.86019 15.9687 9.92823 15.9999 9.99983 15.9999C10.0714 15.9999 10.1395 15.9687 10.1861 15.9145C10.8088 15.1902 12.9265 12.6385 14.0314 10.2212C14.2878 9.66 14.4177 9.05333 14.4177 8.41792C14.4175 5.98189 12.4356 4 9.9997 4ZM9.9997 10.7126C8.73441 10.7126 7.7049 9.68309 7.7049 8.41779C7.7049 7.15237 8.73441 6.12287 9.9997 6.12287C11.265 6.12287 12.2945 7.15237 12.2945 8.41779C12.2946 9.68309 11.2651 10.7126 9.9997 10.7126Z" fill="white"/>
</symbol>
</svg>
