<svg width="18" height="11" viewBox="0 0 18 11" fill="none" xmlns="http://www.w3.org/2000/svg">
<path fill-rule="evenodd" clip-rule="evenodd" d="M9 10.5C4.02944 10.5 0 5.25 0 5.25C0 5.25 4.02944 0 9 0C13.9706 0 18 5.25 18 5.25C18 5.25 13.9706 10.5 9 10.5ZM1.44125 5.39115C1.39602 5.34226 1.35296 5.29515 1.31215 5.25C1.35296 5.20485 1.39602 5.15774 1.44125 5.10885C1.87235 4.64295 2.49588 4.02225 3.26352 3.40364C4.82545 2.14492 6.85344 1 9 1C11.1466 1 13.1745 2.14492 14.7365 3.40364C15.5041 4.02225 16.1276 4.64295 16.5587 5.10885C16.604 5.15774 16.647 5.20485 16.6878 5.25C16.647 5.29515 16.604 5.34226 16.5587 5.39115C16.1276 5.85705 15.5041 6.47775 14.7365 7.09636C13.1745 8.35508 11.1466 9.5 9 9.5C6.85344 9.5 4.82545 8.35508 3.26352 7.09636C2.49588 6.47775 1.87235 5.85705 1.44125 5.39115ZM11.7501 5.25004C11.7501 6.76882 10.5189 8.00004 9.00008 8.00004C7.48129 8.00004 6.25008 6.76882 6.25008 5.25004C6.25008 3.73126 7.48129 2.50004 9.00008 2.50004C10.5189 2.50004 11.7501 3.73126 11.7501 5.25004ZM12.7501 5.25004C12.7501 7.32111 11.0711 9.00004 9.00008 9.00004C6.92901 9.00004 5.25008 7.32111 5.25008 5.25004C5.25008 3.17897 6.92901 1.50004 9.00008 1.50004C11.0711 1.50004 12.7501 3.17897 12.7501 5.25004Z" fill="#BDBDBD"/>
</svg>
